:FULLY-SPECIFIED
:FORCE-ALL-JOINTS-BE-3DOF
:DEGREES
577
root 7.09912 16.3435 -3.57861 -169.481 74.9069 -176.52
lfemur -17.4957 -1.73479 -19.068
ltibia 45.7583 0 0
lfoot -32.8532 8.89284 0
ltoes 4.48562 0 0
rfemur -51.0577 -12.2121 13.4055
rtibia 44.1553 0 0
rfoot 11.5052 6.48351 0
rtoes -32.1744 0 0
lowerback 6.8656 -0.736234 -2.0704
upperback 2.45511 -0.94432 3.60065
thorax -1.21637 -0.446184 4.96939
lowerneck -5.23279 -13.5508 -4.1173
upperneck 10.1621 -18.3477 5.22935
head 4.76828 -8.87921 1.07934
lclavicle -3.51168e-14 -1.89099e-14 0
lhumerus -41.1209 -16.5473 94.0761
lradius 55.2303 0 0
lwrist 21.3291 0 0
lhand -20.969 -4.56944 0
lfingers 7.12502 0 0
lthumb 5.40423 25.3439 0
rclavicle -3.51168e-14 -1.89099e-14 0
rhumerus 28.2916 16.0306 -73.7975
rradius 134.02 0 0
rwrist -44.91 0 0
rhand -25.9476 -21.2683 0
rfingers 7.12502 0 0
rthumb 0.59638 -771.248 0
578
root 7.03579 16.3668 -3.57159 -170.218 75.9466 -177.212
lfemur -17.2744 -1.89433 -19.1467
ltibia 45.1703 0 0
lfoot -32.6895 9.47913 0
ltoes 5.18622 0 0
rfemur -51.3413 -12.6781 13.691
rtibia 46.2428 0 0
rfoot 12.1855 6.75733 0
rtoes -30.6167 0 0
lowerback 6.67506 -0.729328 -2.17937
upperback 2.39577 -0.950702 3.49321
thorax -1.17191 -0.452759 4.91667
lowerneck -5.32465 -13.514 -4.06336
upperneck 10.3551 -18.3097 5.20578
head 4.83417 -8.85234 1.05446
lclavicle -3.21373e-14 -1.89251e-14 0
lhumerus -40.0702 -17.3067 93.2081
lradius 55.0442 0 0
lwrist 21.6646 0 0
lhand -20.8501 -4.25903 0
lfingers 7.12502 0 0
lthumb 5.51907 25.6519 0
rclavicle -3.21373e-14 -1.89251e-14 0
rhumerus 28.3122 15.9987 -73.6831
rradius 134.044 0 0
rwrist -44.9092 0 0
rhand -25.7863 -21.0678 0
rfingers 7.12502 0 0
rthumb 0.752115 -771.046 0
579
root 6.96688 16.3856 -3.56185 -170.991 77.0331 -177.906
lfemur -17.0829 -2.0278 -19.2127
ltibia 44.6667 0 0
lfoot -32.5407 10.0342 0
ltoes 5.91371 0 0
rfemur -51.6188 -13.1347 13.923
rtibia 48.7299 0 0
rfoot 12.927 7.08087 0
rtoes -28.7908 0 0
lowerback 6.46933 -0.72251 -2.30297
upperback 2.3405 -0.957692 3.37304
thorax -1.11461 -0.459822 4.8587
lowerneck -5.41121 -13.4792 -4.00331
upperneck 10.5758 -18.2771 5.19072
head 4.90847 -8.82663 1.03013
lclavicle -2.81697e-14 -1.82333e-14 0
lhumerus -38.8371 -18.1552 92.2215
lradius 54.8015 0 0
lwrist 22.1178 0 0
lhand -20.746 -3.89566 0
lfingers 7.12502 0 0
lthumb 5.61957 26.0128 0
rclavicle -2.81697e-14 -1.82333e-14 0
rhumerus 28.2618 15.9715 -73.591
rradius 134.076 0 0
rwrist -44.9044 0 0
rhand -25.6105 -20.8321 0
rfingers 7.12502 0 0
rthumb 0.921981 -770.81 0
580
root 6.89466 16.3989 -3.54966 -171.455 78.1171 -178.263
lfemur -16.9329 -2.09299 -19.2623
ltibia 44.2757 0 0
lfoot -32.4129 10.5329 0
ltoes 6.61365 0 0
rfemur -51.8595 -13.5509 14.0962
rtibia 51.471 0 0
rfoot 13.6713 7.4451 0
rtoes -26.8001 0 0
lowerback 6.25505 -0.717611 -2.44206
upperback 2.29115 -0.967187 3.24383
thorax -1.04583 -0.468232 4.79997
lowerneck -5.48798 -13.4466 -3.93997
upperneck 10.8166 -18.2505 5.18826
head 4.98876 -8.80256 1.0085
lclavicle -2.33523e-14 -1.68573e-14 0
lhumerus -37.4637 -19.0638 91.1609
lradius 54.5147 0 0
lwrist 22.6664 0 0
lhand -20.6579 -3.49801 0
lfingers 7.12502 0 0
lthumb 5.70468 26.4079 0
rclavicle -2.33523e-14 -1.68573e-14 0
rhumerus 28.1355 15.9494 -73.5257
rradius 134.109 0 0
rwrist -44.9 0 0
rhand -25.4343 -20.5752 0
rfingers 7.12502 0 0
rthumb 1.0921 -770.553 0
581
root 6.82105 16.4068 -3.5356 -171.129 79.1574 -177.808
lfemur -16.8286 -2.03852 -19.295
ltibia 44.0018 0 0
lfoot -32.3068 10.9658 0
ltoes 7.2281 0 0
rfemur -52.0298 -13.9005 14.2225
rtibia 54.2639 0 0
rfoot 14.3484 7.83874 0
rtoes -24.7823 0 0
lowerback 6.03734 -0.717036 -2.59948
upperback 2.24748 -0.9821 3.10909
thorax -0.96807 -0.479407 4.74593
lowerneck -5.55278 -13.4154 -3.87645
upperneck 11.0686 -18.2286 5.20208
head 5.07254 -8.77962 0.991645
lclavicle -1.79431e-14 -1.49504e-14 0
lhumerus -36.0026 -20.004 90.0793
lradius 54.2044 0 0
lwrist 23.2705 0 0
lhand -20.5803 -3.09072 0
lfingers 7.12502 0 0
lthumb 5.77957 26.8126 0
rclavicle -1.79431e-14 -1.49504e-14 0
rhumerus 27.9392 15.9309 -73.4856
rradius 134.139 0 0
rwrist -44.9027 0 0
rhand -25.2754 -20.3157 0
rfingers 7.12502 0 0
rthumb 1.24562 -770.292 0
582
root 6.74755 16.4109 -3.52058 -169.392 80.1211 -175.931
lfemur -16.7658 -1.80388 -19.314
ltibia 43.8264 0 0
lfoot -32.2168 11.3389 0
ltoes 7.69566 0 0
rfemur -52.0933 -14.162 14.3315
rtibia 56.8496 0 0
rfoot 14.8765 8.24819 0
rtoes -22.9101 0 0
lowerback 5.81983 -0.723765 -2.78011
upperback 2.20721 -1.00636 2.97218
thorax -0.88497 -0.495329 4.70304
lowerneck -5.60569 -13.383 -3.81618
upperneck 11.3224 -18.208 5.23539
head 5.15721 -8.75634 0.981612
lclavicle -1.23193e-14 -1.27971e-14 0
lhumerus -34.5173 -20.9475 89.0378
lradius 53.8998 0 0
lwrist 23.8723 0 0
lhand -20.5014 -2.70436 0
lfingers 7.12502 0 0
lthumb 5.8557 27.1961 0
rclavicle -1.23193e-14 -1.27971e-14 0
rhumerus 27.6893 15.9125 -73.4632
rradius 134.155 0 0
rwrist -44.9217 0 0
rhand -25.1541 -20.0772 0
rfingers 7.12502 0 0
rthumb 1.36271 -770.053 0
583
root 6.67531 16.4136 -3.50583 -165.486 80.9835 -171.893
lfemur -16.7329 -1.31935 -19.3255
ltibia 43.7074 0 0
lfoot -32.132 11.6741 0
ltoes 7.95147 0 0
rfemur -52.0112 -14.3185 14.4698
rtibia 58.9124 0 0
rfoot 15.1619 8.65757 0
rtoes -21.3907 0 0
lowerback 5.60461 -0.741354 -2.9908
upperback 2.16595 -1.04492 2.83627
thorax -0.801299 -0.518543 4.67873
lowerneck -5.64907 -13.3455 -3.76288
upperneck 11.5673 -18.1832 5.29101
head 5.24011 -8.73023 0.980399
lclavicle -6.97774e-15 -1.08122e-14 0
lhumerus -33.0822 -21.8659 88.1059
lradius 53.6381 0 0
lwrist 24.3965 0 0
lhand -20.403 -2.37548 0
lfingers 7.12502 0 0
lthumb 5.95076 27.5215 0
rclavicle -6.97774e-15 -1.08122e-14 0
rhumerus 27.4128 15.8892 -73.4451
rradius 134.146 0 0
rwrist -44.9691 0 0
rhand -25.0942 -19.8882 0
rfingers 7.12502 0 0
rthumb 1.42057 -769.864 0
584
root 6.60508 16.4188 -3.49289 -158.514 81.7281 -164.82
lfemur -16.7102 -0.506082 -19.3393
ltibia 43.5794 0 0
lfoot -32.0354 12.0088 0
ltoes 7.92721 0 0
rfemur -51.7417 -14.358 14.7015
rtibia 60.0801 0 0
rfoot 15.0992 9.0487 0
rtoes -20.4659 0 0
lowerback 5.39226 -0.773932 -3.24045
upperback 2.11729 -1.10374 2.70437
thorax -0.722965 -0.552155 4.68141
lowerneck -5.68756 -13.2972 -3.72061
upperneck 11.7917 -18.1468 5.3713
head 5.31852 -8.69784 0.989961
lclavicle -2.5345e-15 -9.54166e-15 0
lhumerus -31.7822 -22.7311 87.3611
lradius 53.4653 0 0
lwrist 24.7501 0 0
lhand -20.2601 -2.14656 0
lfingers 7.12502 0 0
lthumb 6.08869 27.7459 0
rclavicle -2.5345e-15 -9.54166e-15 0
rhumerus 27.1475 15.8538 -73.4119
rradius 134.097 0 0
rwrist -45.0591 0 0
rhand -25.1223 -19.7819 0
rfingers 7.12502 0 0
rthumb 1.39344 -769.757 0
585
root 6.59631 16.4196 -3.49126 -157.21 81.8198 -163.505
lfemur -16.7093 -0.359858 -19.3403
ltibia 43.5657 0 0
lfoot -32.0221 12.047 0
ltoes 7.88261 0 0
rfemur -51.6785 -14.3442 14.7376
rtibia 60.1215 0 0
rfoot 15.045 9.09066 0
rtoes -20.4259 0 0
lowerback 5.3648 -0.779586 -3.27867
upperback 2.11062 -1.11331 2.68773
thorax -0.712763 -0.557548 4.68561
lowerneck -5.69083 -13.2906 -3.7174
upperneck 11.8183 -18.142 5.38561
head 5.32818 -8.69351 0.992856
lclavicle -2.04999e-15 -9.45423e-15 0
lhumerus -31.6272 -22.8343 87.2842
lradius 53.4525 0 0
lwrist 24.7774 0 0
lhand -20.2387 -2.13003 0
lfingers 7.12502 0 0
lthumb 6.10939 27.7618 0
rclavicle -2.04999e-15 -9.45423e-15 0
rhumerus 27.1126 15.8519 -73.4066
rradius 134.089 0 0
rwrist -45.0717 0 0
rhand -25.1374 -19.7772 0
rfingers 7.12502 0 0
rthumb 1.37882 -769.752 0
586
root 6.57244 16.4207 -3.48619 -152.987 82.0853 -159.248
lfemur -16.7159 0.10714 -19.3376
ltibia 43.5532 0 0
lfoot -31.9879 12.1279 0
ltoes 7.68506 0 0
rfemur -51.4506 -14.2664 14.8274
rtibia 60.1126 0 0
rfoot 14.8256 9.18519 0
rtoes -20.4216 0 0
lowerback 5.2878 -0.796478 -3.39586
upperback 2.0936 -1.14146 2.64147
thorax -0.681877 -0.573457 4.7035
lowerneck -5.69403 -13.2742 -3.71319
upperneck 11.8905 -18.1319 5.4336
head 5.35483 -8.68294 1.00409
lclavicle -7.0787e-16 -9.22091e-15 0
lhumerus -31.1968 -23.1074 87.0842
lradius 53.423 0 0
lwrist 24.843 0 0
lhand -20.1827 -2.10061 0
lfingers 7.12502 0 0
lthumb 6.16339 27.7899 0
rclavicle -7.0787e-16 -9.22091e-15 0
rhumerus 27.0034 15.8593 -73.3953
rradius 134.074 0 0
rwrist -45.0988 0 0
rhand -25.1963 -19.7723 0
rfingers 7.12502 0 0
rthumb 1.32196 -769.747 0
